<svg width="32" height="33" viewBox="0 0 32 33" fill="none" xmlns="http://www.w3.org/2000/svg">
<rect y="0.5" width="32" height="32" rx="6" fill="white"/>
<mask id="mask0_7492_229" style="mask-type:alpha" maskUnits="userSpaceOnUse" x="6" y="6" width="20" height="21">
<rect x="6" y="6.5" width="20" height="20" fill="#D9D9D9"/>
</mask>
<g mask="url(#mask0_7492_229)">
<path d="M11.833 24.8334C11.3747 24.8334 10.9823 24.6702 10.6559 24.3438C10.3295 24.0174 10.1663 23.6251 10.1663 23.1667C10.1663 22.7084 10.3295 22.3161 10.6559 21.9897C10.9823 21.6633 11.3747 21.5001 11.833 21.5001C12.2913 21.5001 12.6837 21.6633 13.0101 21.9897C13.3365 22.3161 13.4997 22.7084 13.4997 23.1667C13.4997 23.6251 13.3365 24.0174 13.0101 24.3438C12.6837 24.6702 12.2913 24.8334 11.833 24.8334ZM20.1663 24.8334C19.708 24.8334 19.3156 24.6702 18.9893 24.3438C18.6629 24.0174 18.4997 23.6251 18.4997 23.1667C18.4997 22.7084 18.6629 22.3161 18.9893 21.9897C19.3156 21.6633 19.708 21.5001 20.1663 21.5001C20.6247 21.5001 21.017 21.6633 21.3434 21.9897C21.6698 22.3161 21.833 22.7084 21.833 23.1667C21.833 23.6251 21.6698 24.0174 21.3434 24.3438C21.017 24.6702 20.6247 24.8334 20.1663 24.8334ZM11.1247 11.5001L13.1247 15.6667H18.958L21.2497 11.5001H11.1247ZM10.333 9.83341H22.6247C22.9441 9.83341 23.1872 9.97578 23.3538 10.2605C23.5205 10.5452 23.5275 10.8334 23.3747 11.1251L20.4163 16.4584C20.2636 16.7362 20.0587 16.9515 19.8018 17.1042C19.5448 17.257 19.2636 17.3334 18.958 17.3334H12.7497L11.833 19.0001H21.833V20.6667H11.833C11.208 20.6667 10.7358 20.3924 10.4163 19.8438C10.0969 19.2952 10.083 18.7501 10.3747 18.2084L11.4997 16.1667L8.49967 9.83341H6.83301V8.16675H9.54134L10.333 9.83341Z" fill="#3BADFC"/>
</g>
</svg>
