<svg width="32" height="33" viewBox="0 0 32 33" fill="none" xmlns="http://www.w3.org/2000/svg">
<rect y="0.5" width="32" height="32" rx="6" fill="white"/>
<mask id="mask0_7492_216" style="mask-type:alpha" maskUnits="userSpaceOnUse" x="6" y="6" width="20" height="21">
<rect width="20" height="20" transform="matrix(-1 0 0 1 26 6.5)" fill="#D9D9D9"/>
</mask>
<g mask="url(#mask0_7492_216)">
<path d="M14.1247 24.3334C14.4441 24.6529 14.84 24.8126 15.3122 24.8126C15.7844 24.8126 16.1802 24.6529 16.4997 24.3334L23.833 17.0001C23.9858 16.8473 24.1073 16.6667 24.1976 16.4584C24.2879 16.2501 24.333 16.0279 24.333 15.7917V9.83341C24.333 9.37508 24.1698 8.98272 23.8434 8.65633C23.517 8.32994 23.1247 8.16675 22.6663 8.16675H16.708C16.4719 8.16675 16.2497 8.21189 16.0413 8.30216C15.833 8.39244 15.6525 8.51397 15.4997 8.66675L8.16634 16.0209C7.8469 16.3404 7.68717 16.7327 7.68717 17.198C7.68717 17.6633 7.8469 18.0556 8.16634 18.3751L14.1247 24.3334ZM15.3122 23.1667L9.35384 17.2084L16.708 9.83341H22.6663V15.7917L15.3122 23.1667ZM20.583 13.1667C20.2358 13.1667 19.9406 13.0452 19.6976 12.8022C19.4545 12.5591 19.333 12.264 19.333 11.9167C19.333 11.5695 19.4545 11.2744 19.6976 11.0313C19.9406 10.7883 20.2358 10.6667 20.583 10.6667C20.9302 10.6667 21.2254 10.7883 21.4684 11.0313C21.7115 11.2744 21.833 11.5695 21.833 11.9167C21.833 12.264 21.7115 12.5591 21.4684 12.8022C21.2254 13.0452 20.9302 13.1667 20.583 13.1667Z" fill="#3BADFC"/>
</g>
</svg>
