<svg width="32" height="32" viewBox="0 0 32 32" fill="none" xmlns="http://www.w3.org/2000/svg">
<rect width="32" height="32" rx="6" fill="#3BADFC"/>
<mask id="mask0_7492_137" style="mask-type:alpha" maskUnits="userSpaceOnUse" x="6" y="6" width="20" height="20">
<rect x="6" y="6" width="20" height="20" fill="#D9D9D9"/>
</mask>
<g mask="url(#mask0_7492_137)">
<path d="M11 24.3334C10.3056 24.3334 9.71528 24.0903 9.22917 23.6042C8.74306 23.1181 8.5 22.5278 8.5 21.8334V19.3334H11V7.66669L12.25 8.91669L13.5 7.66669L14.75 8.91669L16 7.66669L17.25 8.91669L18.5 7.66669L19.75 8.91669L21 7.66669L22.25 8.91669L23.5 7.66669V21.8334C23.5 22.5278 23.2569 23.1181 22.7708 23.6042C22.2847 24.0903 21.6944 24.3334 21 24.3334H11ZM21 22.6667C21.2361 22.6667 21.434 22.5868 21.5938 22.4271C21.7535 22.2674 21.8333 22.0695 21.8333 21.8334V10.1667H12.6667V19.3334H20.1667V21.8334C20.1667 22.0695 20.2465 22.2674 20.4062 22.4271C20.566 22.5868 20.7639 22.6667 21 22.6667ZM13.5 13.5V11.8334H18.5V13.5H13.5ZM13.5 16V14.3334H18.5V16H13.5ZM20.1667 13.5C19.9306 13.5 19.7326 13.4202 19.5729 13.2604C19.4132 13.1007 19.3333 12.9028 19.3333 12.6667C19.3333 12.4306 19.4132 12.2327 19.5729 12.0729C19.7326 11.9132 19.9306 11.8334 20.1667 11.8334C20.4028 11.8334 20.6007 11.9132 20.7604 12.0729C20.9201 12.2327 21 12.4306 21 12.6667C21 12.9028 20.9201 13.1007 20.7604 13.2604C20.6007 13.4202 20.4028 13.5 20.1667 13.5ZM20.1667 16C19.9306 16 19.7326 15.9202 19.5729 15.7604C19.4132 15.6007 19.3333 15.4028 19.3333 15.1667C19.3333 14.9306 19.4132 14.7327 19.5729 14.5729C19.7326 14.4132 19.9306 14.3334 20.1667 14.3334C20.4028 14.3334 20.6007 14.4132 20.7604 14.5729C20.9201 14.7327 21 14.9306 21 15.1667C21 15.4028 20.9201 15.6007 20.7604 15.7604C20.6007 15.9202 20.4028 16 20.1667 16ZM11 22.6667H18.5V21H10.1667V21.8334C10.1667 22.0695 10.2465 22.2674 10.4063 22.4271C10.566 22.5868 10.7639 22.6667 11 22.6667Z" fill="white"/>
</g>
</svg>
