<svg width="20" height="20" viewBox="0 0 20 20" fill="none" xmlns="http://www.w3.org/2000/svg">
<path d="M16.6667 10H3.33333M13.3333 3.33337H15C15.442 3.33337 15.8659 3.50897 16.1785 3.82153C16.4911 4.13409 16.6667 4.55801 16.6667 5.00004V6.66671M6.66667 16.6667H5C4.55797 16.6667 4.13405 16.4911 3.82149 16.1786C3.50893 15.866 3.33333 15.4421 3.33333 15V13.3334M16.6667 13.3334V15C16.6667 15.4421 16.4911 15.866 16.1785 16.1786C15.8659 16.4911 15.442 16.6667 15 16.6667H13.3333M3.33333 6.66671V5.00004C3.33333 4.55801 3.50893 4.13409 3.82149 3.82153C4.13405 3.50897 4.55797 3.33337 5 3.33337H6.66667" stroke="black" stroke-width="1.5" stroke-linecap="round" stroke-linejoin="round"/>
</svg>
