<svg width="42" height="42" viewBox="0 0 42 42" fill="none" xmlns="http://www.w3.org/2000/svg">
<g clip-path="url(#clip0_7492_445)">
<rect width="42" height="42" rx="8" fill="#3BADFC" fill-opacity="0.1"/>
<mask id="mask0_7492_445" style="mask-type:alpha" maskUnits="userSpaceOnUse" x="9" y="9" width="24" height="24">
<rect x="9" y="9" width="24" height="24" fill="#D9D9D9"/>
</mask>
<g mask="url(#mask0_7492_445)">
<path d="M23.25 30.4C22.8667 30.7833 22.3917 30.975 21.825 30.975C21.2583 30.975 20.7833 30.7833 20.4 30.4L11.6 21.6C11.4167 21.4167 11.2708 21.2 11.1625 20.95C11.0542 20.7 11 20.4333 11 20.15V13C11 12.45 11.1958 11.9792 11.5875 11.5875C11.9792 11.1958 12.45 11 13 11H20.15C20.4333 11 20.7 11.0542 20.95 11.1625C21.2 11.2708 21.4167 11.4167 21.6 11.6L30.4 20.425C30.7833 20.8083 30.975 21.2792 30.975 21.8375C30.975 22.3958 30.7833 22.8667 30.4 23.25L23.25 30.4ZM21.825 29L28.975 21.85L20.15 13H13V20.15L21.825 29ZM15.5 17C15.9167 17 16.2708 16.8542 16.5625 16.5625C16.8542 16.2708 17 15.9167 17 15.5C17 15.0833 16.8542 14.7292 16.5625 14.4375C16.2708 14.1458 15.9167 14 15.5 14C15.0833 14 14.7292 14.1458 14.4375 14.4375C14.1458 14.7292 14 15.0833 14 15.5C14 15.9167 14.1458 16.2708 14.4375 16.5625C14.7292 16.8542 15.0833 17 15.5 17Z" fill="#3BADFC"/>
</g>
</g>
<defs>
<clipPath id="clip0_7492_445">
<rect width="42" height="42" rx="8" fill="white"/>
</clipPath>
</defs>
</svg>
