<svg width="42" height="30" viewBox="0 0 42 30" fill="none" xmlns="http://www.w3.org/2000/svg">
<g clip-path="url(#clip0_7492_487)">
<rect width="42" height="42" rx="8" fill="#34A853" fill-opacity="0.2"/>
<path d="M13 13C12.4696 13 11.9609 13.2107 11.5858 13.5858C11.2107 13.9609 11 14.4696 11 15V26C11 26.5304 11.2107 27.0391 11.5858 27.4142C11.9609 27.7893 12.4696 28 13 28V29H15V28H26V29H28V28C28.5304 28 29.0391 27.7893 29.4142 27.4142C29.7893 27.0391 30 26.5304 30 26V25H31V23H30V18H31V16H30V15C30 14.4696 29.7893 13.9609 29.4142 13.5858C29.0391 13.2107 28.5304 13 28 13H13ZM13 15H28V26H13V15ZM22.5 16.5C21.4391 16.5 20.4217 16.9214 19.6716 17.6716C18.9214 18.4217 18.5 19.4391 18.5 20.5C18.5 21.5609 18.9214 22.5783 19.6716 23.3284C20.4217 24.0786 21.4391 24.5 22.5 24.5C23.5609 24.5 24.5783 24.0786 25.3284 23.3284C26.0786 22.5783 26.5 21.5609 26.5 20.5C26.5 19.4391 26.0786 18.4217 25.3284 17.6716C24.5783 16.9214 23.5609 16.5 22.5 16.5ZM14 18V23H16V18H14ZM22.5 18.5C23.0304 18.5 23.5391 18.7107 23.9142 19.0858C24.2893 19.4609 24.5 19.9696 24.5 20.5C24.5 21.0304 24.2893 21.5391 23.9142 21.9142C23.5391 22.2893 23.0304 22.5 22.5 22.5C21.9696 22.5 21.4609 22.2893 21.0858 21.9142C20.7107 21.5391 20.5 21.0304 20.5 20.5C20.5 19.9696 20.7107 19.4609 21.0858 19.0858C21.4609 18.7107 21.9696 18.5 22.5 18.5Z" fill="#34A853"/>
</g>
<defs>
<clipPath id="clip0_7492_487">
<rect width="42" height="42" rx="8" fill="white"/>
</clipPath>
</defs>
</svg>
