<svg width="42" height="42" viewBox="0 0 42 42" fill="none" xmlns="http://www.w3.org/2000/svg">
<g clip-path="url(#clip0_7492_419)">
<rect width="42" height="42" rx="8" fill="#3BADFC" fill-opacity="0.2"/>
<path d="M29 28V19.5C29 19.3448 28.9639 19.1916 28.8944 19.0528C28.825 18.9139 28.7242 18.7931 28.6 18.7L21.6 13.45C21.4269 13.3202 21.2164 13.25 21 13.25C20.7836 13.25 20.5731 13.3202 20.4 13.45L13.4 18.7C13.2758 18.7931 13.175 18.9139 13.1056 19.0528C13.0361 19.1916 13 19.3448 13 19.5V28C13 28.2652 13.1054 28.5196 13.2929 28.7071C13.4804 28.8946 13.7348 29 14 29H18C18.2652 29 18.5196 28.8946 18.7071 28.7071C18.8946 28.5196 19 28.2652 19 28V25C19 24.7348 19.1054 24.4804 19.2929 24.2929C19.4804 24.1054 19.7348 24 20 24H22C22.2652 24 22.5196 24.1054 22.7071 24.2929C22.8946 24.4804 23 24.7348 23 25V28C23 28.2652 23.1054 28.5196 23.2929 28.7071C23.4804 28.8946 23.7348 29 24 29H28C28.2652 29 28.5196 28.8946 28.7071 28.7071C28.8946 28.5196 29 28.2652 29 28Z" stroke="#3BADFC" stroke-width="2" stroke-linecap="round" stroke-linejoin="round"/>
</g>
<defs>
<clipPath id="clip0_7492_419">
<rect width="42" height="42" rx="8" fill="white"/>
</clipPath>
</defs>
</svg>
