<svg width="42" height="42" viewBox="0 0 42 42" fill="none" xmlns="http://www.w3.org/2000/svg">
<g clip-path="url(#clip0_7492_436)">
<rect width="42" height="42" rx="8" fill="#FBBC05" fill-opacity="0.2"/>
<mask id="mask0_7492_436" style="mask-type:alpha" maskUnits="userSpaceOnUse" x="9" y="9" width="24" height="24">
<rect x="9" y="9" width="24" height="24" fill="#D9D9D9"/>
</mask>
<g mask="url(#mask0_7492_436)">
<path d="M16 31C15.45 31 14.9792 30.8042 14.5875 30.4125C14.1958 30.0208 14 29.55 14 29C14 28.45 14.1958 27.9792 14.5875 27.5875C14.9792 27.1958 15.45 27 16 27C16.55 27 17.0208 27.1958 17.4125 27.5875C17.8042 27.9792 18 28.45 18 29C18 29.55 17.8042 30.0208 17.4125 30.4125C17.0208 30.8042 16.55 31 16 31ZM26 31C25.45 31 24.9792 30.8042 24.5875 30.4125C24.1958 30.0208 24 29.55 24 29C24 28.45 24.1958 27.9792 24.5875 27.5875C24.9792 27.1958 25.45 27 26 27C26.55 27 27.0208 27.1958 27.4125 27.5875C27.8042 27.9792 28 28.45 28 29C28 29.55 27.8042 30.0208 27.4125 30.4125C27.0208 30.8042 26.55 31 26 31ZM15.15 15L17.55 20H24.55L27.3 15H15.15ZM14.2 13H28.95C29.3333 13 29.625 13.1708 29.825 13.5125C30.025 13.8542 30.0333 14.2 29.85 14.55L26.3 20.95C26.1167 21.2833 25.8708 21.5417 25.5625 21.725C25.2542 21.9083 24.9167 22 24.55 22H17.1L16 24H28V26H16C15.25 26 14.6833 25.6708 14.3 25.0125C13.9167 24.3542 13.9 23.7 14.25 23.05L15.6 20.6L12 13H10V11H13.25L14.2 13Z" fill="#FBBC05"/>
</g>
</g>
<defs>
<clipPath id="clip0_7492_436">
<rect width="42" height="42" rx="8" fill="white"/>
</clipPath>
</defs>
</svg>
