<svg width="42" height="42" viewBox="0 0 42 42" fill="none" xmlns="http://www.w3.org/2000/svg">
<g clip-path="url(#clip0_7492_454)">
<rect width="42" height="42" rx="8" fill="#34A853" fill-opacity="0.2"/>
<mask id="mask0_7492_454" style="mask-type:alpha" maskUnits="userSpaceOnUse" x="9" y="9" width="24" height="24">
<rect x="9" y="9" width="24" height="24" fill="#D9D9D9"/>
</mask>
<g mask="url(#mask0_7492_454)">
<path d="M20.1 28H21.85V26.75C22.6833 26.6 23.4 26.275 24 25.775C24.6 25.275 24.9 24.5333 24.9 23.55C24.9 22.85 24.7 22.2083 24.3 21.625C23.9 21.0417 23.1 20.5333 21.9 20.1C20.9 19.7667 20.2083 19.475 19.825 19.225C19.4417 18.975 19.25 18.6333 19.25 18.2C19.25 17.7667 19.4042 17.425 19.7125 17.175C20.0208 16.925 20.4667 16.8 21.05 16.8C21.5833 16.8 22 16.9292 22.3 17.1875C22.6 17.4458 22.8167 17.7667 22.95 18.15L24.55 17.5C24.3667 16.9167 24.0292 16.4083 23.5375 15.975C23.0458 15.5417 22.5 15.3 21.9 15.25V14H20.15V15.25C19.3167 15.4333 18.6667 15.8 18.2 16.35C17.7333 16.9 17.5 17.5167 17.5 18.2C17.5 18.9833 17.7292 19.6167 18.1875 20.1C18.6458 20.5833 19.3667 21 20.35 21.35C21.4 21.7333 22.1292 22.075 22.5375 22.375C22.9458 22.675 23.15 23.0667 23.15 23.55C23.15 24.1 22.9542 24.5042 22.5625 24.7625C22.1708 25.0208 21.7 25.15 21.15 25.15C20.6 25.15 20.1125 24.9792 19.6875 24.6375C19.2625 24.2958 18.95 23.7833 18.75 23.1L17.1 23.75C17.3333 24.55 17.6958 25.1958 18.1875 25.6875C18.6792 26.1792 19.3167 26.5167 20.1 26.7V28ZM21 31C19.6167 31 18.3167 30.7375 17.1 30.2125C15.8833 29.6875 14.825 28.975 13.925 28.075C13.025 27.175 12.3125 26.1167 11.7875 24.9C11.2625 23.6833 11 22.3833 11 21C11 19.6167 11.2625 18.3167 11.7875 17.1C12.3125 15.8833 13.025 14.825 13.925 13.925C14.825 13.025 15.8833 12.3125 17.1 11.7875C18.3167 11.2625 19.6167 11 21 11C22.3833 11 23.6833 11.2625 24.9 11.7875C26.1167 12.3125 27.175 13.025 28.075 13.925C28.975 14.825 29.6875 15.8833 30.2125 17.1C30.7375 18.3167 31 19.6167 31 21C31 22.3833 30.7375 23.6833 30.2125 24.9C29.6875 26.1167 28.975 27.175 28.075 28.075C27.175 28.975 26.1167 29.6875 24.9 30.2125C23.6833 30.7375 22.3833 31 21 31ZM21 29C23.2333 29 25.125 28.225 26.675 26.675C28.225 25.125 29 23.2333 29 21C29 18.7667 28.225 16.875 26.675 15.325C25.125 13.775 23.2333 13 21 13C18.7667 13 16.875 13.775 15.325 15.325C13.775 16.875 13 18.7667 13 21C13 23.2333 13.775 25.125 15.325 26.675C16.875 28.225 18.7667 29 21 29Z" fill="#34A853"/>
</g>
</g>
<defs>
<clipPath id="clip0_7492_454">
<rect width="42" height="42" rx="8" fill="white"/>
</clipPath>
</defs>
</svg>
