<svg width="42" height="42" viewBox="0 0 42 42" fill="none" xmlns="http://www.w3.org/2000/svg">
<g clip-path="url(#clip0_7492_472)">
<rect width="42" height="42" rx="8" fill="#FBBC05" fill-opacity="0.2"/>
<path d="M29 14C28.4 14 28 14.5 28 15.1V25C28 25.6 28.4 26 29 26.1C29.6 26.1 30 25.6 30 25V15.1C30 14.5 29.6 14 29 14ZM25.4 11H13.6C12.7 11 12 11.7 12 12.6V26.4C12 27.3 12.7 28 13.6 28H15V30C15 30.6 15.4 31 16 31H22C22.6 31 23 30.6 23 30V28H25.4C26.3 28 27 27.3 27 26.4V12.6C27 11.7 26.3 11 25.4 11ZM14 17H17V19H14V17ZM21 20V22H18V20H21ZM18 19V17H21V19H18ZM21 23V25H18V23H21ZM14 20H17V22H14V20ZM14 25V23H17V25H14ZM17 30H16V28H17V30ZM22 30H19V28H22V30ZM25 25H22V23H25V25ZM25 22H22V20H25V22ZM25 19H22V17H25V19ZM25 15H14V13H25V15Z" fill="#FBBC05"/>
</g>
<defs>
<clipPath id="clip0_7492_472">
<rect width="42" height="42" rx="8" fill="white"/>
</clipPath>
</defs>
</svg>
